<svg width="20" height="18" viewBox="0 0 20 18" fill="none" xmlns="http://www.w3.org/2000/svg">
<path d="M10 1.5623C8.83647 0.498368 7.3116 -0.0603347 5.75012 0.00517341C4.18864 0.0706816 2.71393 0.755225 1.64004 1.91302C0.566141 3.07082 -0.0220808 4.6104 0.000634227 6.20388C0.0233493 7.79737 0.655207 9.31886 1.76165 10.4443L8.5868 17.4032C8.96164 17.7853 9.46997 18 10 18C10.53 18 11.0384 17.7853 11.4132 17.4032L18.2383 10.4443C19.3448 9.31886 19.9767 7.79737 19.9994 6.20388C20.0221 4.6104 19.4339 3.07082 18.36 1.91302C17.2861 0.755225 15.8114 0.0706816 14.2499 0.00517341C12.6884 -0.0603347 11.1635 0.498368 10 1.5623Z" fill="#15D0F9"/>
</svg>
