<svg width="20" height="18" viewBox="0 0 20 18" fill="none" xmlns="http://www.w3.org/2000/svg">
<path d="M10 1.5623C8.83647 0.498368 7.3116 -0.0603347 5.75012 0.00517341C4.18864 0.0706816 2.71393 0.755225 1.64004 1.91302C0.566142 3.07082 -0.0220808 4.6104 0.000634227 6.20388C0.0233493 7.79737 0.655207 9.31886 1.76165 10.4443L8.5868 17.4032C8.96164 17.7853 9.46997 18 10 18C10.53 18 11.0384 17.7853 11.4132 17.4032L18.2384 10.4443C19.3448 9.31886 19.9767 7.79737 19.9994 6.20388C20.0221 4.6104 19.4339 3.07082 18.36 1.91302C17.2861 0.755225 15.8114 0.0706816 14.2499 0.00517341C12.6884 -0.0603347 11.1635 0.498368 10 1.5623ZM8.82866 3.23781L9.2934 3.71071C9.48082 3.90177 9.73499 4.0091 10 4.0091C10.265 4.0091 10.5192 3.90177 10.7066 3.71071L11.1713 3.23781C11.5401 2.84845 11.9812 2.53788 12.469 2.32423C12.9567 2.11057 13.4813 1.99811 14.0121 1.99341C14.5429 1.9887 15.0694 2.09185 15.5607 2.29683C16.052 2.50181 16.4983 2.80451 16.8737 3.18728C17.2491 3.57005 17.5459 4.02522 17.7469 4.52623C17.9479 5.02723 18.0491 5.56405 18.0445 6.10534C18.0399 6.64664 17.9296 7.18158 17.72 7.67895C17.5105 8.17632 17.206 8.62616 16.8241 9.00222L10 15.9621L3.17585 9.00222C2.44763 8.23335 2.04468 7.20357 2.05379 6.13469C2.0629 5.0658 2.48333 4.04332 3.22455 3.28747C3.96576 2.53162 4.96845 2.10289 6.01664 2.0936C7.06484 2.08431 8.07468 2.49521 8.82866 3.23781Z" fill="#151515"/>
</svg>
