<svg width="32" height="32" viewBox="0 0 32 32" fill="none" xmlns="http://www.w3.org/2000/svg">
<path d="M16.0766 1.57252L16.0768 1.57304L20.2047 10.2151L20.5471 10.932L21.3326 11.0515L30.4043 12.4321L30.4045 12.4321C30.4094 12.4328 30.422 12.4361 30.4386 12.4507C30.4558 12.4659 30.4764 12.4931 30.4891 12.534C30.5018 12.5752 30.5036 12.6213 30.4934 12.6647C30.4832 12.7078 30.4635 12.7387 30.4453 12.7573L30.4447 12.7579L23.8417 19.5L23.3152 20.0375L23.4313 20.781L24.9158 30.2858C24.9158 30.286 24.9158 30.2861 24.9159 30.2862C24.9228 30.3312 24.9171 30.3762 24.9021 30.4142C24.8871 30.4519 24.8662 30.4748 24.8505 30.4866L25.7516 31.6858L24.8505 30.4866C24.8355 30.4979 24.825 30.4996 24.8208 30.4999C24.8182 30.5001 24.8154 30.5 24.8121 30.4992C24.8087 30.4985 24.8038 30.4969 24.7975 30.4934L16.7285 26.0105L16 25.6058L15.2715 26.0105L7.20248 30.4934C7.20243 30.4934 7.20237 30.4935 7.20232 30.4935C7.19612 30.4969 7.19126 30.4985 7.18793 30.4992C7.18459 30.5 7.18179 30.5001 7.17918 30.4999C7.17501 30.4996 7.16452 30.4979 7.14951 30.4866L6.24844 31.6858L7.14951 30.4866C7.13379 30.4748 7.1129 30.4519 7.09795 30.4142L5.70366 30.9673L7.09795 30.4142C7.08291 30.3763 7.07725 30.3313 7.08412 30.2864C7.08415 30.2862 7.08417 30.286 7.0842 30.2859L8.56869 20.781L8.6848 20.0375L8.15831 19.5L1.5553 12.7579L1.55471 12.7573C1.53647 12.7387 1.51681 12.7078 1.50663 12.6646C1.49639 12.6213 1.49816 12.5752 1.51092 12.534C1.52359 12.4931 1.54418 12.4659 1.56142 12.4507C1.57802 12.4361 1.59056 12.4328 1.59554 12.4321L1.5957 12.4321L10.6674 11.0515L11.4529 10.932L11.7953 10.2151L15.9232 1.57304L15.9234 1.57252C15.9399 1.53797 15.9605 1.51868 15.9747 1.50952C15.9817 1.50497 15.9874 1.50268 15.9913 1.50151C15.9948 1.50047 15.9976 1.50008 16 1.50001C16.0024 1.50008 16.0052 1.50047 16.0087 1.50151C16.0126 1.50268 16.0183 1.50497 16.0253 1.50952L16.8408 0.250569L16.0253 1.50952C16.0395 1.51868 16.0601 1.53798 16.0766 1.57252Z" stroke="#151515" stroke-width="3"/>
</svg>
