<svg width="26" height="24" viewBox="0 0 26 24" fill="none" xmlns="http://www.w3.org/2000/svg">
<path d="M10.5265 2.40024C8.60493 2.40024 6.76212 3.15932 5.4034 4.51049C4.04468 5.86166 3.28136 7.69424 3.28136 9.60508C3.28136 11.5159 4.04468 13.3485 5.4034 14.6997C6.76212 16.0508 8.60493 16.8099 10.5265 16.8099C12.448 16.8099 14.2908 16.0508 15.6495 14.6997C17.0082 13.3485 17.7715 11.5159 17.7715 9.60508C17.7715 7.69424 17.0082 5.86166 15.6495 4.51049C14.2908 3.15932 12.448 2.40024 10.5265 2.40024ZM0.866333 9.60508C0.866553 8.07628 1.23368 6.56962 1.9372 5.2103C2.64073 3.85098 3.66033 2.67826 4.91127 1.78961C6.16221 0.900961 7.60837 0.322044 9.12954 0.100971C10.6507 -0.120101 12.203 0.0230565 13.6573 0.518546C15.1117 1.01404 16.4261 1.84755 17.4914 2.94981C18.5567 4.05207 19.342 5.39125 19.7822 6.85604C20.2223 8.32084 20.3046 9.86895 20.0221 11.3717C19.7396 12.8745 19.1005 14.2885 18.1579 15.4962L24.6628 21.965C24.8828 22.1915 25.0045 22.4948 25.0017 22.8096C24.999 23.1245 24.872 23.4256 24.6481 23.6483C24.4242 23.8709 24.1214 23.9972 23.8048 24C23.4882 24.0027 23.1831 23.8817 22.9554 23.6629L16.4505 17.1942C15.0226 18.2966 13.3122 18.9785 11.5139 19.1623C9.71561 19.346 7.90154 19.0243 6.27799 18.2337C4.65443 17.4431 3.28654 16.2152 2.32987 14.6899C1.3732 13.1645 0.866132 11.4028 0.866333 9.60508Z" fill="#FF7F2E"/>
</svg>
