<svg width="20" height="12" viewBox="0 0 20 12" fill="none" xmlns="http://www.w3.org/2000/svg">
<path d="M8.98822 0.439867C9.25659 0.158221 9.62053 0 10 0C10.3795 0 10.7434 0.158221 11.0118 0.439867L19.5983 9.45395C19.859 9.7373 20.0032 10.1168 19.9999 10.5107C19.9967 10.9046 19.8462 11.2814 19.5808 11.56C19.3155 11.8385 18.9566 11.9965 18.5814 11.9999C18.2061 12.0034 17.8446 11.8519 17.5747 11.5783L10 3.62635L2.42527 11.5783C2.15537 11.8519 1.79387 12.0034 1.41865 11.9999C1.04342 11.9965 0.68449 11.8385 0.419155 11.56C0.153821 11.2814 0.00331471 10.9046 5.40985e-05 10.5107C-0.00320651 10.1168 0.141039 9.7373 0.401723 9.45395L8.98822 0.439867Z" fill="#FDFFF8"/>
</svg>
