<svg width="16" height="16" viewBox="0 0 16 16" fill="none" xmlns="http://www.w3.org/2000/svg">
<path d="M8 1.6C6.30261 1.6 4.67475 2.27428 3.47452 3.47452C2.27428 4.67475 1.6 6.30261 1.6 8C1.6 9.69739 2.27428 11.3253 3.47452 12.5255C4.67475 13.7257 6.30261 14.4 8 14.4C9.69739 14.4 11.3253 13.7257 12.5255 12.5255C13.7257 11.3253 14.4 9.69739 14.4 8C14.4 6.30261 13.7257 4.67475 12.5255 3.47452C11.3253 2.27428 9.69739 1.6 8 1.6ZM0 8C0 3.5816 3.5816 0 8 0C12.4184 0 16 3.5816 16 8C16 12.4184 12.4184 16 8 16C3.5816 16 0 12.4184 0 8ZM8 4C8.21217 4 8.41566 4.08429 8.56569 4.23431C8.71571 4.38434 8.8 4.58783 8.8 4.8V7.2H11.2C11.4122 7.2 11.6157 7.28429 11.7657 7.43431C11.9157 7.58434 12 7.78783 12 8C12 8.21217 11.9157 8.41566 11.7657 8.56569C11.6157 8.71571 11.4122 8.8 11.2 8.8H8.8V11.2C8.8 11.4122 8.71571 11.6157 8.56569 11.7657C8.41566 11.9157 8.21217 12 8 12C7.78783 12 7.58434 11.9157 7.43431 11.7657C7.28429 11.6157 7.2 11.4122 7.2 11.2V8.8H4.8C4.58783 8.8 4.38434 8.71571 4.23431 8.56569C4.08429 8.41566 4 8.21217 4 8C4 7.78783 4.08429 7.58434 4.23431 7.43431C4.38434 7.28429 4.58783 7.2 4.8 7.2H7.2V4.8C7.2 4.58783 7.28429 4.38434 7.43431 4.23431C7.58434 4.08429 7.78783 4 8 4Z" fill="#0D0D0D"/>
</svg>
