<svg width="20" height="20" viewBox="0 0 20 20" fill="none" xmlns="http://www.w3.org/2000/svg">
<circle cx="10" cy="10" r="10" fill="#A2A2A2"/>
<path d="M4.25074 4.26168C4.41134 4.10099 4.62913 4.01072 4.85622 4.01072C5.08331 4.01072 5.3011 4.10099 5.4617 4.26168L9.99465 8.79853L14.5276 4.26168C14.6066 4.17981 14.7011 4.11451 14.8056 4.06959C14.9101 4.02467 15.0224 4.00102 15.1362 4.00003C15.2499 3.99904 15.3626 4.02073 15.4679 4.06383C15.5731 4.10693 15.6688 4.17057 15.7492 4.25105C15.8296 4.33153 15.8932 4.42723 15.9362 4.53257C15.9793 4.63791 16.001 4.75078 16 4.86459C15.999 4.9784 15.9754 5.09088 15.9305 5.19545C15.8856 5.30003 15.8203 5.39461 15.7386 5.47368L11.2056 10.0105L15.7386 14.5474C15.8946 14.709 15.9809 14.9256 15.9789 15.1503C15.977 15.375 15.8869 15.59 15.7281 15.7489C15.5693 15.9079 15.3545 15.998 15.13 16C14.9054 16.0019 14.6891 15.9155 14.5276 15.7594L9.99465 11.2225L5.4617 15.7594C5.30018 15.9155 5.08385 16.0019 4.8593 16C4.63476 15.998 4.41996 15.9079 4.26118 15.7489C4.10239 15.59 4.01232 15.375 4.01037 15.1503C4.00842 14.9256 4.09474 14.709 4.25074 14.5474L8.78369 10.0105L4.25074 5.47368C4.09019 5.31294 4 5.09496 4 4.86768C4 4.64039 4.09019 4.42241 4.25074 4.26168Z" fill="#151515"/>
</svg>
