<svg width="16" height="16" viewBox="0 0 16 16" fill="none" xmlns="http://www.w3.org/2000/svg">
<circle cx="8" cy="8" r="8" fill="#A2A2A2"/>
<path d="M3.40055 3.40934C3.52903 3.28079 3.70326 3.20857 3.88493 3.20857C4.0666 3.20857 4.24083 3.28079 4.36931 3.40934L7.99567 7.03882L11.622 3.40934C11.6852 3.34384 11.7608 3.29161 11.8444 3.25567C11.928 3.21973 12.0179 3.20081 12.1089 3.20002C12.1998 3.19923 12.2901 3.21658 12.3743 3.25106C12.4585 3.28554 12.535 3.33645 12.5993 3.40084C12.6636 3.46522 12.7145 3.54178 12.7489 3.62605C12.7834 3.71033 12.8007 3.80062 12.7999 3.89167C12.7991 3.98272 12.7802 4.0727 12.7443 4.15636C12.7084 4.24002 12.6562 4.31568 12.5908 4.37894L8.96443 8.00842L12.5908 11.6379C12.7156 11.7672 12.7846 11.9404 12.7831 12.1202C12.7815 12.3 12.7095 12.472 12.5824 12.5992C12.4554 12.7263 12.2836 12.7984 12.1039 12.8C11.9243 12.8015 11.7512 12.7324 11.622 12.6075L7.99567 8.97802L4.36931 12.6075C4.24009 12.7324 4.06703 12.8015 3.88739 12.8C3.70776 12.7984 3.53592 12.7263 3.40889 12.5992C3.28186 12.472 3.20981 12.3 3.20825 12.1202C3.20669 11.9404 3.27575 11.7672 3.40055 11.6379L7.0269 8.00842L3.40055 4.37894C3.27211 4.25035 3.19995 4.07596 3.19995 3.89414C3.19995 3.71231 3.27211 3.53793 3.40055 3.40934Z" fill="#151515"/>
</svg>
