<svg width="136" height="52" viewBox="0 0 136 52" fill="none" xmlns="http://www.w3.org/2000/svg">
<g filter="url(#filter0_d_404_639)">
<rect x="6" y="2" width="124" height="40" rx="20" fill="#15D0F9" shape-rendering="crispEdges"/>
<path d="M53.6328 17.0352H47.8203V18.2305H50C49.9824 19.5605 49.1738 20.9316 47.4102 21.5L48.207 22.6484C49.4434 22.2441 50.2988 21.4121 50.7734 20.375C51.2363 21.3242 52.0508 22.0859 53.2344 22.4727L53.9961 21.3125C52.2676 20.7617 51.5176 19.4785 51.5117 18.2305H53.6328V17.0352ZM48.8516 24.4883H54.5352V27.0781H56.0352V23.3047H48.8516V24.4883ZM54.5352 22.8477H56.0352V20.2461H57.4766V19.0039H56.0352V16.4141H54.5352V22.8477ZM61.9766 17.8672V16.9648H60.4648V17.9375C60.459 19.4258 59.6738 20.8555 57.8516 21.4414L58.6367 22.6367C59.9199 22.2031 60.7812 21.3301 61.25 20.2168C61.7012 21.1777 62.4805 21.9102 63.6289 22.3086L64.4141 21.1367C62.7031 20.6094 61.9707 19.291 61.9766 17.8672ZM59.6211 25.0156C59.6211 26.334 61.0156 27.084 63.2891 27.0781C65.5684 27.084 66.9629 26.334 66.9688 25.0156C66.9629 23.7031 65.5684 22.9355 63.2891 22.9414C61.0156 22.9355 59.6211 23.7031 59.6211 25.0156ZM61.1094 25.0156C61.1094 24.4062 61.877 24.1016 63.2891 24.1016C64.707 24.1016 65.4746 24.4062 65.4805 25.0156C65.4746 25.6074 64.707 25.918 63.2891 25.918C61.877 25.918 61.1094 25.6074 61.1094 25.0156ZM63.4414 19.5898H65.4453V22.6602H66.9336V16.4141H65.4453V18.3711H63.4414V19.5898ZM71.5273 16.8477C69.957 16.8535 68.8379 17.7266 68.8438 19.0156C68.8379 20.0762 69.623 20.8789 70.8008 21.1133V21.9512C69.8926 21.9746 69.0312 21.9805 68.293 21.9805L68.4453 23.1641C70.2266 23.1699 72.6699 23.1172 74.8672 22.7305L74.75 21.6406C73.9707 21.752 73.1387 21.8281 72.3008 21.8809V21.1016C73.4434 20.8555 74.2051 20.0586 74.2109 19.0156C74.2051 17.7266 73.0859 16.8535 71.5273 16.8477ZM69.6992 26.8789H77.2109V25.6836H71.1992V23.8438H69.6992V26.8789ZM70.2383 19.0156C70.2266 18.3477 70.7715 17.9844 71.5273 17.9727C72.2891 17.9844 72.8047 18.3477 72.8047 19.0156C72.8047 19.666 72.2949 20.041 71.5273 20.0469C70.7715 20.041 70.2266 19.666 70.2383 19.0156ZM75.3477 24.5586H76.8477V21.0195H78.207V19.7773H76.8477V16.4258H75.3477V24.5586ZM88.4492 24.6641H86.0586V23.0352H87.5703V21.8281H81.3125V20.6445H87.3242V17.1055H79.8008V18.3008H85.8477V19.4492H79.8125V23.0352H81.1836V24.6641H78.6875V25.8945H88.4492V24.6641ZM82.6367 24.6641V23.0352H84.5938V24.6641H82.6367Z" fill="black"/>
</g>
<defs>
<filter id="filter0_d_404_639" x="0" y="0" width="136" height="52" filterUnits="userSpaceOnUse" color-interpolation-filters="sRGB">
<feFlood flood-opacity="0" result="BackgroundImageFix"/>
<feColorMatrix in="SourceAlpha" type="matrix" values="0 0 0 0 0 0 0 0 0 0 0 0 0 0 0 0 0 0 127 0" result="hardAlpha"/>
<feOffset dy="4"/>
<feGaussianBlur stdDeviation="3"/>
<feComposite in2="hardAlpha" operator="out"/>
<feColorMatrix type="matrix" values="0 0 0 0 0 0 0 0 0 0 0 0 0 0 0 0 0 0 0.25 0"/>
<feBlend mode="normal" in2="BackgroundImageFix" result="effect1_dropShadow_404_639"/>
<feBlend mode="normal" in="SourceGraphic" in2="effect1_dropShadow_404_639" result="shape"/>
</filter>
</defs>
</svg>
