<svg width="20" height="20" viewBox="0 0 20 20" fill="none" xmlns="http://www.w3.org/2000/svg">
<path d="M10 0C10.1857 0.000103825 10.3676 0.0543301 10.5255 0.156606C10.6834 0.258881 10.811 0.405167 10.894 0.579081L13.4739 5.98035L19.1437 6.84321C19.3284 6.87129 19.5019 6.95295 19.6446 7.07893C19.7873 7.20491 19.8935 7.37019 19.9511 7.55607C20.0088 7.74196 20.0156 7.94103 19.9708 8.13076C19.926 8.32049 19.8314 8.49331 19.6977 8.62967L15.5708 12.8434L16.4988 18.785C16.5286 18.9774 16.5066 19.1746 16.4352 19.3546C16.3638 19.5345 16.2459 19.69 16.0947 19.8036C15.9435 19.9172 15.7651 19.9844 15.5794 19.9976C15.3938 20.0108 15.2083 19.9695 15.0439 19.8783L10 17.0761L4.95615 19.8783C4.7917 19.9695 4.60622 20.0108 4.42057 19.9976C4.23492 19.9844 4.05646 19.9172 3.90528 19.8036C3.75409 19.69 3.63617 19.5345 3.56479 19.3546C3.4934 19.1746 3.47137 18.9774 3.50119 18.785L4.42916 12.8434L0.302281 8.62967C0.168582 8.49331 0.0739917 8.32049 0.0292114 8.13076C-0.0155689 7.94103 -0.00875208 7.74196 0.0488908 7.55607C0.106534 7.37019 0.212702 7.20491 0.355385 7.07893C0.498068 6.95295 0.671571 6.87129 0.856265 6.84321L6.5261 5.98035L9.10603 0.579081C9.18901 0.405167 9.3166 0.258881 9.47449 0.156606C9.63238 0.0543301 9.81434 0.000103825 10 0Z" fill="#FF7F2E"/>
</svg>
